<mxfile host="app.diagrams.net" modified="2023-08-07T06:44:30.503Z" agent="Mozilla/5.0 (Macintosh; Intel Mac OS X 10_15_7) AppleWebKit/537.36 (KHTML, like Gecko) Chrome/115.0.0.0 Safari/537.36" version="21.6.6" etag="Dh-wnN9AQUlvz6i16mQz" type="github">
  <diagram name="Страница 1" id="TBFePED1_7r9XvpF2aJd">
    <mxGraphModel>
      <root>
        <mxCell id="0" />
        <mxCell id="1" parent="0" />
      </root>
    </mxGraphModel>
  </diagram>
</mxfile>
